<?xml version="1.0" encoding="utf-8"?>
<!-- Generator: Adobe Illustrator 27.5.0, SVG Export Plug-In . SVG Version: 6.00 Build 0)  -->
<svg version="1.1" id="Layer_1" xmlns="http://www.w3.org/2000/svg" xmlns:xlink="http://www.w3.org/1999/xlink" x="0px" y="0px"
	 viewBox="0 0 100 100" style="enable-background:new 0 0 100 100;" xml:space="preserve">
<style type="text/css">
	.st0{fill-rule:evenodd;clip-rule:evenodd;fill:#474C57;}
</style>
<path class="st0" d="M37.2,47.8c0-5.9,4.8-10.6,10.6-10.6S58.4,42,58.4,47.8s-4.8,10.6-10.6,10.6S37.2,53.7,37.2,47.8z M47.9,28.7
	c-10.6,0-19.1,8.6-19.1,19.1c0,10.6,8.6,19.1,19.1,19.1c3.7,0,7.2-1.1,10.2-2.9l5.9,5.9c1.7,1.7,4.4,1.7,6,0c1.7-1.7,1.7-4.4,0-6
	L64.1,58c1.8-3,2.9-6.4,2.9-10.2C67,37.2,58.4,28.7,47.9,28.7z M29.8,9.1C35.3,7.9,42,7.5,50,7.5s14.7,0.4,20.2,1.6
	c5.6,1.2,10.2,3.3,13.8,6.9s5.7,8.2,6.9,13.8c1.2,5.5,1.6,12.2,1.6,20.2s-0.4,14.7-1.6,20.2C89.7,75.8,87.6,80.4,84,84
	s-8.2,5.7-13.8,6.9C64.7,92.1,58,92.5,50,92.5s-14.7-0.4-20.2-1.6C24.2,89.7,19.6,87.6,16,84s-5.7-8.2-6.9-13.8
	C7.9,64.7,7.5,58,7.5,50s0.4-14.7,1.6-20.2c1.2-5.6,3.3-10.2,6.9-13.8S24.2,10.4,29.8,9.1z"/>
</svg>
