<?xml version="1.0" encoding="utf-8"?>
<!-- Generator: Adobe Illustrator 27.5.0, SVG Export Plug-In . SVG Version: 6.00 Build 0)  -->
<svg version="1.1" id="uuid-7489c957-4c4a-4310-b881-93084d302646"
	 xmlns="http://www.w3.org/2000/svg" xmlns:xlink="http://www.w3.org/1999/xlink" x="0px" y="0px" viewBox="0 0 30 30"
	 style="enable-background:new 0 0 30 30;" xml:space="preserve">
<style type="text/css">
	.st0{fill:#FFFFFF;stroke:#FFFFFF;stroke-width:3;stroke-miterlimit:133.33;}
	.st1{fill:none;stroke:#FFFFFF;stroke-width:2.2;stroke-miterlimit:133.33;}
	.st2{fill:none;stroke:#FFFFFF;stroke-width:2.2;stroke-linecap:round;stroke-miterlimit:133.33;}
</style>
<circle class="st0" cx="15" cy="15" r="1.4"/>
<path class="st1" d="M24,14.1c0.2,0.4,0.3,0.6,0.3,0.9s-0.1,0.5-0.3,0.9c-0.9,1.8-3.5,5.6-9,5.6s-8.1-3.8-9-5.6
	c-0.2-0.4-0.3-0.6-0.3-0.9s0.1-0.5,0.3-0.9c0.9-1.8,3.5-5.6,9-5.6S23.1,12.3,24,14.1z"/>
<path class="st2" d="M22.2,3.4h0.3c2.6,0,3.9,0,4.7,0.8C28,5,28,6.3,28,8.9v0.3 M22.2,26.5h0.3c2.6,0,3.9,0,4.7-0.8
	C28,25,28,23.6,28,21.1v-0.3 M7.8,3.4H7.5c-2.6,0-3.9,0-4.7,0.8C2,5,2,6.3,2,8.9v0.3 M7.8,26.5H7.5c-2.6,0-3.9,0-4.7-0.8
	C2,25,2,23.6,2,21.1v-0.3"/>
</svg>
