<?xml version="1.0" encoding="utf-8"?>
<!-- Generator: Adobe Illustrator 27.5.0, SVG Export Plug-In . SVG Version: 6.00 Build 0)  -->
<svg version="1.1" id="_x32_" xmlns="http://www.w3.org/2000/svg" xmlns:xlink="http://www.w3.org/1999/xlink" x="0px" y="0px"
	 viewBox="0 0 800 800" style="enable-background:new 0 0 800 800;" xml:space="preserve">
<style type="text/css">
	.st0{fill:#850F05;}
</style>
<g>
	<path class="st0" d="M696.1,369.4V103.9H430.6V0h-61.1v103.9H103.9v265.5H0v61.1h103.9v265.5h265.5V800h61.1V696.1h265.5v-28.7
		V430.6H800v-61.1L696.1,369.4L696.1,369.4z M638.8,369.4h-86.3v61.1h86.3v208.2H430.6v-86.3h-61.1v86.3H161.2V430.6h86.3v-61.1
		h-86.3V161.2h208.2v86.3h61.1v-86.3h208.2L638.8,369.4L638.8,369.4z"/>
	<path class="st0" d="M400,365.6c-19,0-34.4,15.4-34.4,34.4c0,19,15.4,34.4,34.4,34.4c19,0,34.4-15.4,34.4-34.4
		C434.4,381,419,365.6,400,365.6z"/>
</g>
</svg>
